<svg width="85" height="33" viewBox="0 0 85 33" fill="none" xmlns="http://www.w3.org/2000/svg">
<path d="M5.56711 26.4505H6.76278V27.1054H5.56711V26.4505ZM4.98825 24.6608H5.78022V28.8495H4.98825V24.6608ZM5.00354 29.8396H2.1248V30.898H5.00354V29.8396ZM2.01053 24.6074H2.81015V25.6813H2.01053V24.6074ZM2.41423 26.8617C2.13481 26.8617 1.9103 26.9188 1.74014 27.0333C1.56999 27.1474 1.48505 27.3061 1.48505 27.5091C1.48505 27.7122 1.56999 27.8708 1.74014 27.9851C1.9103 28.0994 2.13481 28.1565 2.41423 28.1565C2.68837 28.1565 2.90927 28.0994 3.07678 27.9851C3.24429 27.8708 3.32798 27.7122 3.32798 27.5091C3.32798 27.3061 3.24429 27.1474 3.07678 27.0333C2.90927 26.9188 2.68837 26.8617 2.41423 26.8617ZM1.34033 29.1998H5.78022V31.5303H1.34033V29.1998ZM2.41423 26.2678C2.74926 26.2678 3.04244 26.3186 3.29378 26.4201C3.54512 26.5217 3.74183 26.6664 3.88404 26.8542C4.02612 27.042 4.09729 27.2604 4.09729 27.5091C4.09729 27.7579 4.02612 27.9763 3.88404 28.164C3.74183 28.352 3.54512 28.4967 3.29378 28.5982C3.04244 28.6998 2.74926 28.7505 2.41423 28.7505C2.07906 28.7505 1.78463 28.6998 1.53079 28.5982C1.2768 28.4967 1.07885 28.352 0.936772 28.164C0.794559 27.9763 0.723522 27.7579 0.723522 27.5091C0.723522 27.2604 0.794559 27.042 0.936772 26.8542C1.07885 26.6664 1.2768 26.5217 1.53079 26.4201C1.78463 26.3186 2.07906 26.2678 2.41423 26.2678ZM0.35791 25.3387H4.46277V25.9784H0.35791V25.3387Z" fill="white" fill-opacity="0.5"/>
<path d="M12.2688 24.6614H13.0303V31.6221H12.2688V24.6614ZM10.9588 24.8214H11.7052V31.2795H10.9588V24.8214ZM9.96127 27.3346H11.0961V27.9819H9.96127V27.3346ZM8.9712 25.4687H10.0602V26.1237H8.9712V25.4687ZM9.61845 25.4687H10.2963C10.2963 25.875 10.2849 26.2912 10.262 26.7176C10.2392 27.1442 10.1909 27.5732 10.1174 28.0047C10.0436 28.4362 9.93194 28.8577 9.78222 29.269C9.63236 29.6802 9.43064 30.0762 9.1768 30.457L8.55999 30.099C8.75281 29.8249 8.91406 29.5406 9.04349 29.2462C9.17291 28.9517 9.27703 28.6509 9.35572 28.3435C9.4344 28.0366 9.49154 27.7267 9.52712 27.4145C9.56257 27.1023 9.58676 26.79 9.59941 26.4778C9.61206 26.1656 9.61845 25.8546 9.61845 25.5449V25.4687ZM7.18902 25.4687H8.49131V26.1237H7.18902V25.4687ZM8.0801 25.4687H8.7503C8.7503 25.875 8.73501 26.2772 8.70456 26.6758C8.67412 27.0745 8.61824 27.4679 8.53705 27.8563C8.45587 28.2447 8.34284 28.6229 8.19813 28.9911C8.05355 29.3592 7.86421 29.7132 7.63081 30.0533L7.00635 29.7031C7.23475 29.3882 7.41756 29.0684 7.55463 28.7433C7.6917 28.4187 7.79957 28.0834 7.87825 27.7383C7.95694 27.3931 8.01018 27.0376 8.03826 26.672C8.06607 26.3064 8.0801 25.9283 8.0801 25.5372V25.4687Z" fill="white" fill-opacity="0.5"/>
<path d="M18.9706 27.4565H20.2272V28.119H18.9706V27.4565ZM18.3538 24.6614H19.1534V31.6221H18.3538V24.6614ZM15.3761 24.7527H16.1757V26.0017H15.3761V24.7527ZM15.7796 27.525C15.5968 27.525 15.4318 27.5657 15.2846 27.6468C15.1374 27.7281 15.0219 27.841 14.938 27.9857C14.8544 28.1304 14.8125 28.2992 14.8125 28.4921C14.8125 28.6902 14.8544 28.8615 14.938 29.0062C15.0219 29.1509 15.1374 29.2639 15.2846 29.3451C15.4318 29.4265 15.5968 29.4671 15.7796 29.4671C15.9675 29.4671 16.1339 29.4265 16.2786 29.3451C16.4232 29.2639 16.5374 29.1509 16.6213 29.0062C16.7049 28.8615 16.7469 28.6902 16.7469 28.4921C16.7469 28.2992 16.7049 28.1304 16.6213 27.9857C16.5374 27.841 16.4219 27.7281 16.2747 27.6468C16.1273 27.5657 15.9625 27.525 15.7796 27.525ZM15.7796 26.87C16.1148 26.87 16.4118 26.9399 16.6707 27.0795C16.9296 27.2192 17.1339 27.4107 17.2838 27.6543C17.4335 27.8981 17.5084 28.1774 17.5084 28.4921C17.5084 28.812 17.4335 29.0938 17.2838 29.3375C17.1339 29.5812 16.9296 29.7729 16.6707 29.9125C16.4118 30.0522 16.1148 30.1218 15.7796 30.1218C15.4496 30.1218 15.1552 30.0522 14.8962 29.9125C14.6374 29.7729 14.4329 29.5812 14.2833 29.3375C14.1333 29.0938 14.0585 28.812 14.0585 28.4921C14.0585 28.1774 14.1333 27.8981 14.2833 27.6543C14.4329 27.4107 14.6374 27.2192 14.8962 27.0795C15.1552 26.9399 15.4496 26.87 15.7796 26.87ZM13.7158 25.7353H17.7979V26.3751H13.7158V25.7353Z" fill="white" fill-opacity="0.5"/>
<path d="M21.2705 26.6563H26.0455V27.296H21.2705V26.6563ZM21.2705 24.9045H22.0625V26.976H21.2705V24.9045ZM21.2171 30.8143H26.0835V31.4541H21.2171V30.8143ZM21.2171 29.4054H22.0167V30.9819H21.2171V29.4054ZM20.4556 28.1337H26.7613V28.7735H20.4556V28.1337Z" fill="white" fill-opacity="0.5"/>
<path d="M28.9546 30.9893V25.3765H29.838V27.6689H32.2369V25.3765H33.1203V30.9893H32.2369V28.438H29.838V30.9893H28.9546Z" fill="white" fill-opacity="0.5"/>
<path d="M37.3549 30.9893L35.9612 28.4913L36.6163 27.9811L38.3526 30.9893H37.3549ZM35.1769 28.0192H36.0221C36.4282 28.0192 36.7392 27.9341 36.9551 27.7641C37.1708 27.5939 37.2788 27.3413 37.2788 27.0063C37.2788 26.6661 37.1708 26.4287 36.9551 26.2943C36.7392 26.1599 36.4282 26.0923 36.0221 26.0923H35.1769V28.0192ZM34.2935 30.9893V25.3765H36.1287C36.5145 25.3765 36.8598 25.4286 37.1645 25.5326C37.4691 25.6367 37.7102 25.8069 37.888 26.0429C38.0656 26.279 38.1545 26.6003 38.1545 27.0063C38.1545 27.3972 38.0656 27.7196 37.888 27.9736C37.7102 28.2274 37.4691 28.4165 37.1645 28.5409C36.8598 28.6653 36.5145 28.7273 36.1287 28.7273H35.1769V30.9893H34.2935Z" fill="white" fill-opacity="0.5"/>
<path d="M38.8474 32.5127L38.6494 32.0175C38.9134 31.9059 39.119 31.7573 39.2662 31.5721C39.4134 31.3867 39.4845 31.18 39.4795 30.9515L39.4186 30.2508L39.7841 30.8296C39.7333 30.8855 39.6749 30.9247 39.609 30.9477C39.5429 30.9705 39.4718 30.9819 39.3957 30.9819C39.2434 30.9819 39.1076 30.9325 38.9883 30.8334C38.8689 30.7344 38.8093 30.5961 38.8093 30.4184C38.8093 30.2458 38.8689 30.1087 38.9883 30.0072C39.1076 29.9056 39.2511 29.8549 39.4186 29.8549C39.6368 29.8549 39.8044 29.9385 39.9213 30.1061C40.0379 30.2737 40.0963 30.5048 40.0963 30.7992C40.0963 31.2002 39.9859 31.5492 39.7652 31.8463C39.5443 32.1433 39.2383 32.3653 38.8474 32.5127Z" fill="white" fill-opacity="0.5"/>
<path d="M47.1867 26.4505H48.3826V27.1054H47.1867V26.4505ZM46.6079 24.6608H47.3998V28.8495H46.6079V24.6608ZM46.623 29.8396H43.7443V30.898H46.623V29.8396ZM43.6302 24.6074H44.4298V25.6813H43.6302V24.6074ZM44.0337 26.8617C43.7544 26.8617 43.5298 26.9188 43.3598 27.0333C43.1896 27.1474 43.1047 27.3061 43.1047 27.5091C43.1047 27.7122 43.1896 27.8708 43.3598 27.9851C43.5298 28.0994 43.7544 28.1565 44.0337 28.1565C44.308 28.1565 44.5288 28.0994 44.6963 27.9851C44.8639 27.8708 44.9476 27.7122 44.9476 27.5091C44.9476 27.3061 44.8639 27.1474 44.6963 27.0333C44.5288 26.9188 44.308 26.8617 44.0337 26.8617ZM42.96 29.1998H47.3998V31.5303H42.96V29.1998ZM44.0337 26.2678C44.3689 26.2678 44.6621 26.3186 44.9134 26.4201C45.1648 26.5217 45.3615 26.6664 45.5037 26.8542C45.6457 27.042 45.7168 27.2604 45.7168 27.5091C45.7168 27.7579 45.6457 27.9763 45.5037 28.164C45.3615 28.352 45.1648 28.4967 44.9134 28.5982C44.6621 28.6998 44.3689 28.7505 44.0337 28.7505C43.6987 28.7505 43.4043 28.6998 43.1503 28.5982C42.8964 28.4967 42.6983 28.352 42.5563 28.164C42.4141 27.9763 42.3432 27.7579 42.3432 27.5091C42.3432 27.2604 42.4141 27.042 42.5563 26.8542C42.6983 26.6664 42.8964 26.5217 43.1503 26.4201C43.4043 26.3186 43.6987 26.2678 44.0337 26.2678ZM41.9775 25.3387H46.0824V25.9784H41.9775V25.3387Z" fill="white" fill-opacity="0.5"/>
<path d="M53.8883 24.6614H54.6499V31.6221H53.8883V24.6614ZM52.5785 24.8214H53.3247V31.2795H52.5785V24.8214ZM51.5808 27.3346H52.7154V27.9819H51.5808V27.3346ZM50.5907 25.4687H51.6797V26.1237H50.5907V25.4687ZM51.2381 25.4687H51.9159C51.9159 25.875 51.9045 26.2912 51.8816 26.7176C51.8586 27.1442 51.8104 27.5732 51.7369 28.0047C51.6632 28.4362 51.5514 28.8577 51.4017 29.269C51.252 29.6802 51.0501 30.0762 50.7964 30.457L50.1795 30.099C50.3724 29.8249 50.5336 29.5406 50.6631 29.2462C50.7925 28.9517 50.8967 28.6509 50.9753 28.3435C51.0539 28.0366 51.1112 27.7267 51.1466 27.4145C51.1821 27.1023 51.2062 26.79 51.219 26.4778C51.2317 26.1656 51.2381 25.8546 51.2381 25.5449V25.4687ZM48.8086 25.4687H50.1109V26.1237H48.8086V25.4687ZM49.6997 25.4687H50.3698C50.3698 25.875 50.3546 26.2772 50.3242 26.6758C50.2937 27.0745 50.2377 27.4679 50.1567 27.8563C50.0754 28.2447 49.9625 28.6229 49.8178 28.9911C49.673 29.3592 49.4838 29.7132 49.2504 30.0533L48.626 29.7031C48.8544 29.3882 49.0372 29.0684 49.1743 28.7433C49.3113 28.4187 49.4192 28.0834 49.4979 27.7383C49.5764 27.3931 49.6298 27.0376 49.6578 26.672C49.6857 26.3064 49.6997 25.9283 49.6997 25.5372V25.4687Z" fill="white" fill-opacity="0.5"/>
<path d="M60.5903 27.4565H61.8468V28.119H60.5903V27.4565ZM59.9734 24.6614H60.7732V31.6221H59.9734V24.6614ZM56.9957 24.7527H57.7955V26.0017H56.9957V24.7527ZM57.3993 27.525C57.2165 27.525 57.0515 27.5657 56.9042 27.6468C56.757 27.7281 56.6416 27.841 56.5578 27.9857C56.4741 28.1304 56.4321 28.2992 56.4321 28.4921C56.4321 28.6902 56.4741 28.8615 56.5578 29.0062C56.6416 29.1509 56.757 29.2639 56.9042 29.3451C57.0515 29.4265 57.2165 29.4671 57.3993 29.4671C57.5871 29.4671 57.7535 29.4265 57.8982 29.3451C58.0429 29.2639 58.1571 29.1509 58.2409 29.0062C58.3246 28.8615 58.3666 28.6902 58.3666 28.4921C58.3666 28.2992 58.3246 28.1304 58.2409 27.9857C58.1571 27.841 58.0415 27.7281 57.8943 27.6468C57.7471 27.5657 57.5821 27.525 57.3993 27.525ZM57.3993 26.87C57.7344 26.87 58.0315 26.9399 58.2904 27.0795C58.5492 27.2192 58.7536 27.4107 58.9034 27.6543C59.053 27.8981 59.1281 28.1774 59.1281 28.4921C59.1281 28.812 59.053 29.0938 58.9034 29.3375C58.7536 29.5812 58.5492 29.7729 58.2904 29.9125C58.0315 30.0522 57.7344 30.1218 57.3993 30.1218C57.0693 30.1218 56.7748 30.0522 56.5158 29.9125C56.257 29.7729 56.0525 29.5812 55.9028 29.3375C55.7531 29.0938 55.6781 28.812 55.6781 28.4921C55.6781 28.1774 55.7531 27.8981 55.9028 27.6543C56.0525 27.4107 56.257 27.2192 56.5158 27.0795C56.7748 26.9399 57.0693 26.87 57.3993 26.87ZM55.3354 25.7353H59.4174V26.3751H55.3354V25.7353Z" fill="white" fill-opacity="0.5"/>
<path d="M62.8901 26.6563H67.6652V27.296H62.8901V26.6563ZM62.8901 24.9045H63.6821V26.976H62.8901V24.9045ZM62.8367 30.8143H67.7032V31.4541H62.8367V30.8143ZM62.8367 29.4054H63.6365V30.9819H62.8367V29.4054ZM62.0752 28.1337H68.3809V28.7735H62.0752V28.1337Z" fill="white" fill-opacity="0.5"/>
<path d="M75.1511 24.6609H75.9507V28.7583H75.1511V24.6609ZM73.7498 26.0394H75.2958V26.6943H73.7498V26.0394ZM73.6357 29.5731C73.3055 29.5731 73.025 29.5998 72.7941 29.653C72.563 29.7064 72.3866 29.7863 72.2647 29.8929C72.1429 29.9997 72.082 30.129 72.082 30.2813C72.082 30.4286 72.1429 30.5556 72.2647 30.6621C72.3866 30.7687 72.563 30.8501 72.7941 30.9058C73.025 30.9617 73.3055 30.9896 73.6357 30.9896C73.9656 30.9896 74.245 30.9617 74.4732 30.9058C74.7018 30.8501 74.8781 30.7687 75.0026 30.6621C75.1269 30.5556 75.1893 30.4286 75.1893 30.2813C75.1893 30.129 75.1269 29.9997 75.0026 29.8929C74.8781 29.7863 74.7018 29.7064 74.4732 29.653C74.245 29.5998 73.9656 29.5731 73.6357 29.5731ZM72.0363 25.0342H72.6837V25.6738C72.6837 25.9937 72.7457 26.2984 72.8703 26.5878C72.9945 26.8773 73.1787 27.1311 73.4224 27.3494C73.6661 27.5676 73.9631 27.7351 74.3134 27.8519L73.8945 28.4764C73.4985 28.3343 73.1608 28.1262 72.8816 27.8519C72.6024 27.5779 72.3918 27.2554 72.2495 26.8848C72.1075 26.5142 72.0363 26.1106 72.0363 25.6738V25.0342ZM73.6357 28.9486C74.3615 28.9486 74.9341 29.0655 75.3529 29.2989C75.7718 29.5325 75.9813 29.86 75.9813 30.2813C75.9813 30.7028 75.7718 31.029 75.3529 31.26C74.9341 31.4909 74.3615 31.6064 73.6357 31.6064C72.9095 31.6064 72.3357 31.4909 71.9145 31.26C71.493 31.029 71.2824 30.7028 71.2824 30.2813C71.2824 29.86 71.493 29.5325 71.9145 29.2989C72.3357 29.0655 72.9095 28.9486 73.6357 28.9486ZM71.8764 25.0342H72.539V25.712C72.539 26.1688 72.4628 26.5941 72.3106 26.9876C72.1582 27.3812 71.9359 27.7237 71.6441 28.0157C71.3521 28.3077 70.9955 28.5324 70.574 28.6898L70.1553 28.0422C70.5309 27.9154 70.8456 27.734 71.0996 27.4977C71.3535 27.2616 71.5464 26.9889 71.6785 26.6792C71.8104 26.3694 71.8764 26.0471 71.8764 25.712V25.0342Z" fill="white" fill-opacity="0.5"/>
<path d="M82.1043 26.3516H83.3001V27.0066H82.1043V26.3516ZM81.5255 24.6609H82.3175V28.819H81.5255V24.6609ZM78.6849 25.415H79.3321V25.9251C79.3321 26.2096 79.3955 26.4837 79.5224 26.7477C79.6495 27.0117 79.8348 27.2465 80.0785 27.4521C80.3222 27.6578 80.6191 27.8165 80.9696 27.9281L80.5887 28.5525C80.1775 28.4206 79.8309 28.2252 79.5493 27.9662C79.2675 27.7072 79.053 27.4014 78.9056 27.0485C78.7583 26.6957 78.6849 26.3212 78.6849 25.9251V25.415ZM80.0785 29.6113C79.7586 29.6113 79.4845 29.6366 79.256 29.6873C79.0276 29.7382 78.8524 29.8144 78.7305 29.9157C78.6087 30.0174 78.5478 30.1418 78.5478 30.289C78.5478 30.4412 78.6087 30.5695 78.7305 30.6735C78.8524 30.7776 79.0276 30.8565 79.256 30.9096C79.4845 30.9629 79.7586 30.9896 80.0785 30.9896C80.4033 30.9896 80.6788 30.9629 80.9048 30.9096C81.1307 30.8565 81.3046 30.7776 81.4266 30.6735C81.5483 30.5695 81.6092 30.4412 81.6092 30.289C81.6092 30.1418 81.5483 30.0174 81.4266 29.9157C81.3046 29.8144 81.1307 29.7382 80.9048 29.6873C80.6788 29.6366 80.4033 29.6113 80.0785 29.6113ZM80.0785 28.979C80.5556 28.979 80.967 29.0312 81.3123 29.1352C81.6575 29.2393 81.924 29.3891 82.1118 29.5845C82.2997 29.7799 82.3937 30.0149 82.3937 30.289C82.3937 30.5681 82.2997 30.8056 82.1118 31.001C81.924 31.1965 81.6575 31.3462 81.3123 31.4503C80.967 31.5543 80.5556 31.6064 80.0785 31.6064C79.6013 31.6064 79.1887 31.5543 78.841 31.4503C78.493 31.3462 78.2265 31.1965 78.0412 31.001C77.8559 30.8056 77.7633 30.5681 77.7633 30.289C77.7633 30.0149 77.8559 29.7799 78.0412 29.5845C78.2265 29.3891 78.493 29.2393 78.841 29.1352C79.1887 29.0312 79.6013 28.979 80.0785 28.979ZM77.0476 25.1483H80.7867V25.7957H77.0476V25.1483ZM78.5249 25.415H79.1799V25.9251C79.1799 26.3567 79.1037 26.7629 78.9514 27.1438C78.799 27.5245 78.5783 27.8558 78.2887 28.1376C77.9994 28.4192 77.6464 28.6339 77.2302 28.7811L76.8267 28.149C77.1921 28.0221 77.5017 27.8444 77.7557 27.6159C78.0095 27.3873 78.2012 27.1272 78.3307 26.8353C78.4602 26.5434 78.5249 26.2402 78.5249 25.9251V25.415Z" fill="white" fill-opacity="0.5"/>
<path d="M4.02562 19.2969L0 6.14599H3.63012L5.39423 12.6275C5.51003 13.2851 5.61804 13.9273 5.71758 14.5531C5.81697 15.1795 5.92457 15.8213 6.04079 16.4787H6.16507C6.31423 15.8213 6.45492 15.1755 6.58782 14.5414C6.7203 13.9074 6.86946 13.2697 7.03531 12.6275L8.72602 6.14599H11.9584L13.6987 12.6275C13.8643 13.2851 14.0135 13.9273 14.1464 14.5531C14.2789 15.1795 14.428 15.8213 14.5939 16.4787H14.6934C14.8257 15.8213 14.9459 15.1795 15.0539 14.5531C15.1615 13.9273 15.2816 13.2851 15.4145 12.6275L17.1039 6.14599H20.5104L16.6339 19.2969H12.7776L11.0882 13.5668C10.939 12.9408 10.8022 12.3186 10.6778 11.6998C10.5535 11.0816 10.4167 10.42 10.2676 9.7155H10.1433C10.0272 10.42 9.91099 11.0856 9.79519 11.7116C9.67897 12.338 9.54663 12.9562 9.39732 13.5668L7.75763 19.2969H4.02562Z" fill="#2691E6"/>
<path d="M21.9077 6.14599H25.3599V19.2969H21.9077V6.14599ZM23.6455 4.34295C23.035 4.34295 22.5495 4.17489 22.1896 3.83805C21.8292 3.50149 21.6494 3.04358 21.6494 2.46416C21.6494 1.90059 21.8292 1.4467 22.1896 1.10222C22.5495 0.75802 23.035 0.585496 23.6455 0.585496C24.2245 0.585496 24.7023 0.75802 25.0781 1.10222C25.4537 1.4467 25.6417 1.90059 25.6417 2.46416C25.6417 3.04358 25.4537 3.50149 25.0781 3.83805C24.7023 4.17489 24.2245 4.34295 23.6455 4.34295Z" fill="#2691E6"/>
<path d="M33.1684 19.625C32.1351 19.625 31.2974 19.4173 30.6557 19.0026C30.0136 18.5879 29.5519 18.0127 29.2701 17.2766C28.9883 16.5409 28.8474 15.6878 28.8474 14.7169V8.86949H26.9922V6.14534H29.0353L29.0532 2.1542H32.276V6.14534H35.5403V8.86949H32.276V14.6934C32.276 15.4449 32.4323 16.0007 32.7456 16.3608C33.0587 16.7211 33.5049 16.9008 34.0842 16.9008C34.3033 16.9008 34.5305 16.8697 34.7653 16.8069C35 16.7446 35.426 16.6818 35.5984 16.6191L35.5943 19.1319C35.234 19.2416 35.1916 19.3509 34.7301 19.4605C34.2681 19.5699 33.7474 19.625 33.1684 19.625Z" fill="#2691E6"/>
<path d="M37.771 19.2969V0.000383291H41.1118V5.27714L41.0587 7.743C41.5754 7.24213 42.1701 6.79589 42.8435 6.40428C43.5164 6.01309 44.2996 5.81736 45.1919 5.81736C46.6164 5.81736 47.6496 6.2832 48.2917 7.21446C48.9334 8.14615 49.2545 9.44191 49.2545 11.1011V19.2969H46.5817V11.5238C46.5817 10.5062 46.214 9.90539 45.9245 9.49808C45.6347 9.09118 44.6049 8.77617 43.9472 8.77617C43.4149 8.77617 42.9492 8.9017 42.5499 9.15193C42.1507 9.40257 41.7082 9.77068 41.2232 10.2557V19.2969H37.771Z" fill="#2691E6"/>
<path d="M52.5825 19.2969V0.328456H56.3711V7.82877H63.5386V0.328456H67.3016V19.2969H63.5386V11.1054H56.3711V19.2969H52.5825Z" fill="white"/>
<path d="M79.98 19.2969L75.577 11.1567L78.2393 8.8016L84.2294 19.2969H79.98ZM73.4779 9.13441H75.9354C77.1642 9.13441 78.0985 8.87834 78.7385 8.36635C79.3784 7.85449 79.6984 7.09533 79.6984 6.08816C79.6984 5.06417 79.3784 4.35185 78.7385 3.95065C78.0985 3.54987 77.1642 3.34913 75.9354 3.34913H73.4779V9.13441ZM69.6895 19.2969V0.328456H76.2682C77.6161 0.328456 78.8281 0.503754 79.9032 0.85324C80.9784 1.20328 81.8315 1.80036 82.463 2.64515C83.0942 3.48995 83.4102 4.63781 83.4102 6.08816C83.4102 7.48763 83.0942 8.6352 82.463 9.53102C81.8315 10.4271 80.9784 11.0842 79.9032 11.5021C78.8281 11.9204 77.6161 12.1292 76.2682 12.1292H73.4779V19.2969H69.6895Z" fill="white"/>
</svg>
