<svg width="83" height="32" viewBox="0 0 83 32" fill="none" xmlns="http://www.w3.org/2000/svg">
<path d="M5.47932 26.0335H6.65613V26.6781H5.47932V26.0335ZM4.90959 24.272H5.68907V28.3946H4.90959V24.272ZM4.92464 29.3691H2.09131V30.4109H4.92464V29.3691ZM1.97884 24.2195H2.76585V25.2764H1.97884V24.2195ZM2.37618 26.4382C2.10116 26.4382 1.88019 26.4944 1.71272 26.607C1.54525 26.7194 1.46165 26.8756 1.46165 27.0754C1.46165 27.2753 1.54525 27.4314 1.71272 27.5439C1.88019 27.6563 2.10116 27.7126 2.37618 27.7126C2.64599 27.7126 2.8634 27.6563 3.02827 27.5439C3.19315 27.4314 3.27551 27.2753 3.27551 27.0754C3.27551 26.8756 3.19315 26.7194 3.02827 26.607C2.8634 26.4944 2.64599 26.4382 2.37618 26.4382ZM1.31922 28.7394H5.68907V31.0331H1.31922V28.7394ZM2.37618 25.8537C2.70592 25.8537 2.99448 25.9036 3.24186 26.0035C3.48923 26.1035 3.68284 26.246 3.8228 26.4308C3.96264 26.6157 4.03269 26.8306 4.03269 27.0754C4.03269 27.3203 3.96264 27.5352 3.8228 27.72C3.68284 27.9049 3.48923 28.0474 3.24186 28.1473C2.99448 28.2473 2.70592 28.2972 2.37618 28.2972C2.0463 28.2972 1.75651 28.2473 1.50667 28.1473C1.25669 28.0474 1.06186 27.9049 0.922025 27.72C0.782055 27.5352 0.712139 27.3203 0.712139 27.0754C0.712139 26.8306 0.782055 26.6157 0.922025 26.4308C1.06186 26.246 1.25669 26.1035 1.50667 26.0035C1.75651 25.9036 2.0463 25.8537 2.37618 25.8537ZM0.352295 24.9392H4.3924V25.5688H0.352295V24.9392Z" fill="#484849"/>
<path d="M12.0754 24.272H12.8249V31.1229H12.0754V24.272ZM10.7861 24.4295H11.5207V30.7857H10.7861V24.4295ZM9.8043 26.903H10.9212V27.5402H9.8043V26.903ZM8.82985 25.0666H9.90172V25.7113H8.82985V25.0666ZM9.4669 25.0666H10.134C10.134 25.4665 10.1228 25.8761 10.1002 26.2958C10.0778 26.7157 10.0303 27.1379 9.95795 27.5626C9.8853 27.9873 9.77543 28.4022 9.62808 28.8069C9.48058 29.2116 9.28205 29.6014 9.03221 29.9762L8.42513 29.6238C8.6149 29.354 8.77362 29.0742 8.901 28.7844C9.02838 28.4946 9.13086 28.1986 9.2083 27.8961C9.28575 27.5939 9.34198 27.289 9.37701 26.9817C9.4119 26.6744 9.4357 26.3671 9.44815 26.0598C9.4606 25.7524 9.4669 25.4464 9.4669 25.1415V25.0666ZM7.07578 25.0666H8.35754V25.7113H7.07578V25.0666ZM7.95282 25.0666H8.61244C8.61244 25.4665 8.59739 25.8623 8.56742 26.2546C8.53746 26.647 8.48246 27.0342 8.40255 27.4165C8.32265 27.7988 8.21141 28.1711 8.06898 28.5334C7.92668 28.8957 7.74033 29.2442 7.5106 29.5788L6.896 29.2342C7.1208 28.9243 7.30072 28.6094 7.43563 28.2896C7.57053 27.9701 7.67671 27.6401 7.75415 27.3003C7.83159 26.9606 7.88399 26.6107 7.91163 26.2509C7.939 25.891 7.95282 25.5189 7.95282 25.134V25.0666Z" fill="#484849"/>
<path d="M18.6714 27.023H19.9082V27.6751H18.6714V27.023ZM18.0643 24.272H18.8513V31.1229H18.0643V24.272ZM15.1336 24.3619H15.9206V25.5911H15.1336V24.3619ZM15.5308 27.0904C15.3509 27.0904 15.1885 27.1305 15.0436 27.2103C14.8987 27.2903 14.785 27.4014 14.7025 27.5439C14.6201 27.6863 14.5789 27.8524 14.5789 28.0423C14.5789 28.2373 14.6201 28.4059 14.7025 28.5483C14.785 28.6907 14.8987 28.802 15.0436 28.8819C15.1885 28.9619 15.3509 29.0019 15.5308 29.0019C15.7156 29.0019 15.8794 28.9619 16.0218 28.8819C16.1641 28.802 16.2766 28.6907 16.3591 28.5483C16.4415 28.4059 16.4828 28.2373 16.4828 28.0423C16.4828 27.8524 16.4415 27.6863 16.3591 27.5439C16.2766 27.4014 16.1629 27.2903 16.018 27.2103C15.873 27.1305 15.7107 27.0904 15.5308 27.0904ZM15.5308 26.4457C15.8607 26.4457 16.1529 26.5145 16.4078 26.6519C16.6626 26.7894 16.8637 26.978 17.0112 27.2177C17.1586 27.4577 17.2323 27.7325 17.2323 28.0423C17.2323 28.3571 17.1586 28.6345 17.0112 28.8743C16.8637 29.1142 16.6626 29.3029 16.4078 29.4402C16.1529 29.5777 15.8607 29.6463 15.5308 29.6463C15.206 29.6463 14.9162 29.5777 14.6613 29.4402C14.4065 29.3029 14.2052 29.1142 14.058 28.8743C13.9104 28.6345 13.8368 28.3571 13.8368 28.0423C13.8368 27.7325 13.9104 27.4577 14.058 27.2177C14.2052 26.978 14.4065 26.7894 14.6613 26.6519C14.9162 26.5145 15.206 26.4457 15.5308 26.4457ZM13.4995 25.329H17.5172V25.9586H13.4995V25.329Z" fill="#484849"/>
<path d="M20.9351 26.236H25.6348V26.8656H20.9351V26.236ZM20.9351 24.5119H21.7146V26.5507H20.9351V24.5119ZM20.8826 30.3285H25.6722V30.9582H20.8826V30.3285ZM20.8826 28.9418H21.6696V30.4934H20.8826V28.9418ZM20.1331 27.6901H26.3393V28.3198H20.1331V27.6901Z" fill="#484849"/>
<path d="M28.498 30.5008V24.9766H29.3676V27.2328H31.7286V24.9766H32.5981V30.5008H31.7286V27.9899H29.3676V30.5008H28.498Z" fill="#484849"/>
<path d="M36.7656 30.5008L35.3939 28.0422L36.0386 27.5401L37.7475 30.5008H36.7656ZM34.622 27.5776H35.4538C35.8535 27.5776 36.1596 27.4939 36.3721 27.3265C36.5844 27.1591 36.6907 26.9104 36.6907 26.5807C36.6907 26.2459 36.5844 26.0122 36.3721 25.8799C36.1596 25.7476 35.8535 25.6811 35.4538 25.6811H34.622V27.5776ZM33.7524 30.5008V24.9766H35.5588C35.9385 24.9766 36.2783 25.0279 36.5782 25.1302C36.878 25.2327 37.1153 25.4002 37.2903 25.6325C37.4651 25.8648 37.5526 26.181 37.5526 26.5807C37.5526 26.9654 37.4651 27.2827 37.2903 27.5327C37.1153 27.7826 36.878 27.9686 36.5782 28.0911C36.2783 28.2135 35.9385 28.2746 35.5588 28.2746H34.622V30.5008H33.7524Z" fill="#484849"/>
<path d="M38.2346 32L38.0398 31.5126C38.2996 31.4028 38.502 31.2565 38.6469 31.0743C38.7918 30.8917 38.8617 30.6883 38.8568 30.4635L38.7968 29.7738L39.1565 30.3435C39.1066 30.3985 39.0491 30.4371 38.9843 30.4596C38.9192 30.4821 38.8492 30.4933 38.7743 30.4933C38.6244 30.4933 38.4908 30.4447 38.3734 30.3472C38.2558 30.2498 38.1971 30.1136 38.1971 29.9388C38.1971 29.7688 38.2558 29.6339 38.3734 29.534C38.4908 29.434 38.632 29.3841 38.7968 29.3841C39.0116 29.3841 39.1765 29.4664 39.2916 29.6313C39.4064 29.7963 39.4638 30.0237 39.4638 30.3135C39.4638 30.7083 39.3552 31.0517 39.1379 31.3441C38.9205 31.6365 38.6194 31.855 38.2346 32Z" fill="#484849"/>
<path d="M46.4422 26.0335H47.6192V26.6781H46.4422V26.0335ZM45.8725 24.272H46.652V28.3946H45.8725V24.272ZM45.8874 29.3691H43.0541V30.4109H45.8874V29.3691ZM42.9417 24.2195H43.7287V25.2764H42.9417V24.2195ZM43.3389 26.4382C43.0641 26.4382 42.8429 26.4944 42.6756 26.607C42.5081 26.7194 42.4245 26.8756 42.4245 27.0754C42.4245 27.2753 42.5081 27.4314 42.6756 27.5439C42.8429 27.6563 43.0641 27.7126 43.3389 27.7126C43.6089 27.7126 43.8262 27.6563 43.991 27.5439C44.156 27.4314 44.2384 27.2753 44.2384 27.0754C44.2384 26.8756 44.156 26.7194 43.991 26.607C43.8262 26.4944 43.6089 26.4382 43.3389 26.4382ZM42.2821 28.7394H46.652V31.0331H42.2821V28.7394ZM43.3389 25.8537C43.6688 25.8537 43.9574 25.9036 44.2047 26.0035C44.4521 26.1035 44.6457 26.246 44.7857 26.4308C44.9255 26.6157 44.9954 26.8306 44.9954 27.0754C44.9954 27.3203 44.9255 27.5352 44.7857 27.72C44.6457 27.9049 44.4521 28.0474 44.2047 28.1473C43.9574 28.2473 43.6688 28.2972 43.3389 28.2972C43.0092 28.2972 42.7194 28.2473 42.4694 28.1473C42.2196 28.0474 42.0246 27.9049 41.8848 27.72C41.7448 27.5352 41.675 27.3203 41.675 27.0754C41.675 26.8306 41.7448 26.6157 41.8848 26.4308C42.0246 26.246 42.2196 26.1035 42.4694 26.0035C42.7194 25.9036 43.0092 25.8537 43.3389 25.8537ZM41.3152 24.9392H45.3553V25.5688H41.3152V24.9392Z" fill="#484849"/>
<path d="M53.0382 24.272H53.7878V31.1229H53.0382V24.272ZM51.749 24.4295H52.4835V30.7857H51.749V24.4295ZM50.7671 26.903H51.8838V27.5402H50.7671V26.903ZM49.7926 25.0666H50.8645V25.7113H49.7926V25.0666ZM50.4298 25.0666H51.0969C51.0969 25.4665 51.0857 25.8761 51.0631 26.2958C51.0406 26.7157 50.9931 27.1379 50.9207 27.5626C50.8482 27.9873 50.7382 28.4022 50.5908 28.8069C50.4435 29.2116 50.2448 29.6014 49.9951 29.9762L49.3879 29.6238C49.5778 29.354 49.7364 29.0742 49.8639 28.7844C49.9913 28.4946 50.0938 28.1986 50.1712 27.8961C50.2485 27.5939 50.3049 27.289 50.3398 26.9817C50.3746 26.6744 50.3985 26.3671 50.411 26.0598C50.4235 25.7524 50.4298 25.4464 50.4298 25.1415V25.0666ZM48.0387 25.0666H49.3204V25.7113H48.0387V25.0666ZM48.9157 25.0666H49.5752C49.5752 25.4665 49.5603 25.8623 49.5303 26.2546C49.5003 26.647 49.4452 27.0342 49.3654 27.4165C49.2854 27.7988 49.1743 28.1711 49.0319 28.5334C48.8894 28.8957 48.7032 29.2442 48.4735 29.5788L47.8589 29.2342C48.0837 28.9243 48.2636 28.6094 48.3985 28.2896C48.5334 27.9701 48.6396 27.6401 48.717 27.3003C48.7943 26.9606 48.8469 26.6107 48.8744 26.2509C48.9019 25.891 48.9157 25.5189 48.9157 25.134V25.0666Z" fill="#484849"/>
<path d="M59.6341 27.023H60.8708V27.6751H59.6341V27.023ZM59.027 24.272H59.8141V31.1229H59.027V24.272ZM56.0962 24.3619H56.8834V25.5911H56.0962V24.3619ZM56.4934 27.0904C56.3135 27.0904 56.1511 27.1305 56.0062 27.2103C55.8613 27.2903 55.7477 27.4014 55.6652 27.5439C55.5829 27.6863 55.5416 27.8524 55.5416 28.0423C55.5416 28.2373 55.5829 28.4059 55.6652 28.5483C55.7477 28.6907 55.8613 28.802 56.0062 28.8819C56.1511 28.9619 56.3135 29.0019 56.4934 29.0019C56.6783 29.0019 56.8421 28.9619 56.9845 28.8819C57.1269 28.802 57.2393 28.6907 57.3218 28.5483C57.4041 28.4059 57.4454 28.2373 57.4454 28.0423C57.4454 27.8524 57.4041 27.6863 57.3218 27.5439C57.2393 27.4014 57.1256 27.2903 56.9807 27.2103C56.8358 27.1305 56.6734 27.0904 56.4934 27.0904ZM56.4934 26.4457C56.8233 26.4457 57.1157 26.5145 57.3705 26.6519C57.6252 26.7894 57.8264 26.978 57.9739 27.2177C58.1211 27.4577 58.195 27.7325 58.195 28.0423C58.195 28.3571 58.1211 28.6345 57.9739 28.8743C57.8264 29.1142 57.6252 29.3029 57.3705 29.4402C57.1157 29.5777 56.8233 29.6463 56.4934 29.6463C56.1686 29.6463 55.8788 29.5777 55.6239 29.4402C55.3692 29.3029 55.1679 29.1142 55.0205 28.8743C54.8732 28.6345 54.7994 28.3571 54.7994 28.0423C54.7994 27.7325 54.8732 27.4577 55.0205 27.2177C55.1679 26.978 55.3692 26.7894 55.6239 26.6519C55.8788 26.5145 56.1686 26.4457 56.4934 26.4457ZM54.4622 25.329H58.4797V25.9586H54.4622V25.329Z" fill="#484849"/>
<path d="M61.898 26.236H66.5977V26.8656H61.898V26.236ZM61.898 24.5119H62.6775V26.5507H61.898V24.5119ZM61.8455 30.3285H66.6352V30.9582H61.8455V30.3285ZM61.8455 28.9418H62.6326V30.4934H61.8455V28.9418ZM61.0959 27.6901H67.3022V28.3198H61.0959V27.6901Z" fill="#484849"/>
<path d="M73.9656 24.272H74.7526V28.3047H73.9656V24.272ZM72.5864 25.6288H74.108V26.2733H72.5864V25.6288ZM72.4741 29.1067C72.1491 29.1067 71.873 29.1329 71.6458 29.1853C71.4184 29.2379 71.2447 29.3165 71.1247 29.4215C71.0049 29.5266 70.945 29.6538 70.945 29.8038C70.945 29.9487 71.0049 30.0737 71.1247 30.1785C71.2447 30.2835 71.4184 30.3635 71.6458 30.4184C71.873 30.4734 72.1491 30.5009 72.4741 30.5009C72.7988 30.5009 73.0738 30.4734 73.2984 30.4184C73.5234 30.3635 73.6969 30.2835 73.8195 30.1785C73.9418 30.0737 74.0032 29.9487 74.0032 29.8038C74.0032 29.6538 73.9418 29.5266 73.8195 29.4215C73.6969 29.3165 73.5234 29.2379 73.2984 29.1853C73.0738 29.1329 72.7988 29.1067 72.4741 29.1067ZM70.8999 24.6394H71.5371V25.2689C71.5371 25.5837 71.5981 25.8837 71.7207 26.1685C71.8431 26.4534 72.0243 26.7032 72.2642 26.918C72.504 27.1329 72.7963 27.2977 73.1411 27.4127L72.7288 28.0273C72.339 27.8874 72.0067 27.6826 71.732 27.4127C71.4571 27.143 71.2498 26.8255 71.1098 26.4608C70.97 26.096 70.8999 25.6988 70.8999 25.2689V24.6394ZM72.4741 28.4921C73.1884 28.4921 73.752 28.6071 74.1643 28.8368C74.5765 29.0667 74.7827 29.3891 74.7827 29.8038C74.7827 30.2186 74.5765 30.5396 74.1643 30.767C73.752 30.9943 73.1884 31.108 72.4741 31.108C71.7593 31.108 71.1947 30.9943 70.7801 30.767C70.3652 30.5396 70.1579 30.2186 70.1579 29.8038C70.1579 29.3891 70.3652 29.0667 70.7801 28.8368C71.1947 28.6071 71.7593 28.4921 72.4741 28.4921ZM70.7426 24.6394H71.3947V25.3065C71.3947 25.7561 71.3197 26.1747 71.1699 26.562C71.0199 26.9494 70.8011 27.2865 70.514 27.5738C70.2265 27.8613 69.8755 28.0824 69.4607 28.2373L69.0486 27.6C69.4183 27.4752 69.728 27.2966 69.978 27.064C70.2279 26.8317 70.4178 26.5633 70.5478 26.2584C70.6776 25.9536 70.7426 25.6363 70.7426 25.3065V24.6394Z" fill="#484849"/>
<path d="M80.8091 25.9361H81.986V26.5806H80.8091V25.9361ZM80.2395 24.272H81.019V28.3645H80.2395V24.272ZM77.4437 25.0142H78.0807V25.5163C78.0807 25.7962 78.1431 26.066 78.268 26.3259C78.3931 26.5857 78.5754 26.8168 78.8153 27.0192C79.0552 27.2217 79.3474 27.3778 79.6923 27.4876L79.3174 28.1022C78.9127 27.9724 78.5716 27.78 78.2944 27.5251C78.0171 27.2702 77.806 26.9692 77.6609 26.622C77.5159 26.2747 77.4437 25.9061 77.4437 25.5163V25.0142ZM78.8153 29.1443C78.5005 29.1443 78.2307 29.1692 78.0057 29.2191C77.7809 29.2692 77.6085 29.3442 77.4885 29.4439C77.3687 29.5439 77.3087 29.6664 77.3087 29.8113C77.3087 29.9611 77.3687 30.0874 77.4885 30.1898C77.6085 30.2922 77.7809 30.3698 78.0057 30.4221C78.2307 30.4746 78.5005 30.5009 78.8153 30.5009C79.1349 30.5009 79.4061 30.4746 79.6286 30.4221C79.8509 30.3698 80.0221 30.2922 80.1421 30.1898C80.2619 30.0874 80.3219 29.9611 80.3219 29.8113C80.3219 29.6664 80.2619 29.5439 80.1421 29.4439C80.0221 29.3442 79.8509 29.2692 79.6286 29.2191C79.4061 29.1692 79.1349 29.1443 78.8153 29.1443ZM78.8153 28.522C79.2849 28.522 79.6897 28.5733 80.0296 28.6757C80.3693 28.7782 80.6316 28.9256 80.8165 29.1179C81.0015 29.3103 81.0939 29.5415 81.0939 29.8113C81.0939 30.086 81.0015 30.3197 80.8165 30.5121C80.6316 30.7045 80.3693 30.8518 80.0296 30.9543C79.6897 31.0567 79.2849 31.108 78.8153 31.108C78.3456 31.108 77.9395 31.0567 77.5973 30.9543C77.2548 30.8518 76.9926 30.7045 76.8102 30.5121C76.6278 30.3197 76.5367 30.086 76.5367 29.8113C76.5367 29.5415 76.6278 29.3103 76.8102 29.1179C76.9926 28.9256 77.2548 28.7782 77.5973 28.6757C77.9395 28.5733 78.3456 28.522 78.8153 28.522ZM75.8322 24.7517H79.5123V25.3889H75.8322V24.7517ZM77.2862 25.0142H77.9309V25.5163C77.9309 25.941 77.8559 26.3408 77.7059 26.7157C77.556 27.0904 77.3387 27.4165 77.0537 27.6938C76.769 27.971 76.4216 28.1823 76.0119 28.3272L75.6147 27.705C75.9745 27.5801 76.2792 27.4053 76.5291 27.1803C76.779 26.9554 76.9676 26.6994 77.095 26.4121C77.2225 26.1247 77.2862 25.8263 77.2862 25.5163V25.0142Z" fill="#484849"/>
<path d="M3.96211 18.9921L0 6.04866H3.57285L5.30913 12.4279C5.42311 13.0752 5.52942 13.7072 5.62738 14.3232C5.72521 14.9397 5.83111 15.5714 5.9455 16.2184H6.06782C6.21463 15.5714 6.35309 14.9357 6.48389 14.3117C6.61429 13.6876 6.7611 13.06 6.92433 12.4279L8.58837 6.04866H11.7698L13.4827 12.4279C13.6456 13.0752 13.7924 13.7072 13.9232 14.3232C14.0536 14.9397 14.2004 15.5714 14.3637 16.2184H14.4616C14.5919 15.5714 14.7101 14.9397 14.8164 14.3232C14.9223 13.7072 15.0405 13.0752 15.1713 12.4279L16.8341 6.04866H20.1868L16.3715 18.9921H12.5761L10.9133 13.3524C10.7664 12.7363 10.6318 12.1239 10.5094 11.5149C10.387 10.9064 10.2524 10.2553 10.1056 9.56186H9.98327C9.86903 10.2553 9.75464 10.9104 9.64067 11.5265C9.52629 12.143 9.39603 12.7515 9.24908 13.3524L7.63526 18.9921H3.96211Z" fill="#2691E6"/>
<path d="M21.5621 6.04861H24.9598V18.992H21.5621V6.04861ZM23.2725 4.27401C22.6716 4.27401 22.1938 4.1086 21.8396 3.77708C21.4848 3.44583 21.3079 2.99514 21.3079 2.42486C21.3079 1.87018 21.4848 1.42345 21.8396 1.08441C22.1938 0.745632 22.6716 0.57583 23.2725 0.57583C23.8424 0.57583 24.3126 0.745632 24.6825 1.08441C25.0522 1.42345 25.2371 1.87018 25.2371 2.42486C25.2371 2.99514 25.0522 3.44583 24.6825 3.77708C24.3126 4.1086 23.8424 4.27401 23.2725 4.27401Z" fill="#2691E6"/>
<path d="M32.6449 19.3157C31.6279 19.3157 30.8034 19.1113 30.1719 18.7031C29.5399 18.295 29.0855 17.7288 28.8081 17.0043C28.5308 16.2803 28.3921 15.4406 28.3921 14.485V8.72985H26.5662V6.04867H28.577L28.5947 2.12049H31.7667V6.04867H34.9794V8.72985H31.7667V14.4619C31.7667 15.2016 31.9204 15.7486 32.2288 16.103C32.537 16.4576 32.9762 16.6345 33.5463 16.6345C33.7619 16.6345 33.9855 16.6039 34.2166 16.542C34.4477 16.4807 34.8669 16.4189 35.0366 16.3572L35.0326 18.8304C34.678 18.9383 34.6362 19.0459 34.182 19.1538C33.7273 19.2615 33.2148 19.3157 32.6449 19.3157Z" fill="#2691E6"/>
<path d="M37.175 18.9921V0H40.4632V5.19352L40.4109 7.62048C40.9195 7.12751 41.5048 6.68831 42.1676 6.30288C42.8298 5.91786 43.6007 5.72521 44.4789 5.72521C45.8809 5.72521 46.8978 6.1837 47.5298 7.10028C48.1614 8.01727 48.4774 9.29259 48.4774 10.9256V18.9921H45.8467V11.3416C45.8467 10.3401 45.4848 9.74876 45.2 9.34787C44.9147 8.94739 43.9011 8.63735 43.2538 8.63735C42.7299 8.63735 42.2716 8.7609 41.8786 9.00718C41.4856 9.25387 41.0501 9.61618 40.5728 10.0936V18.9921H37.175Z" fill="#2691E6"/>
<path d="M51.7529 18.9921V0.322901H55.4818V7.7049H62.5362V0.322901H66.2399V18.9921H62.5362V10.9298H55.4818V18.9921H51.7529Z" fill="#07325D"/>
<path d="M78.7185 18.9921L74.385 10.9803L77.0053 8.66238L82.9009 18.9921H78.7185ZM72.319 8.98994H74.7378C75.9472 8.98994 76.8667 8.73791 77.4967 8.23399C78.1265 7.73021 78.4414 6.98302 78.4414 5.99174C78.4414 4.9839 78.1265 4.28283 77.4967 3.88795C76.8667 3.49349 75.9472 3.29592 74.7378 3.29592H72.319V8.98994ZM68.5903 18.9921V0.322901H75.0653C76.392 0.322901 77.5848 0.495434 78.643 0.839405C79.7012 1.18393 80.5408 1.77158 81.1624 2.60305C81.7836 3.43452 82.0946 4.56427 82.0946 5.99174C82.0946 7.36914 81.7836 8.49861 81.1624 9.38029C80.5408 10.2623 79.7012 10.909 78.643 11.3203C77.5848 11.732 76.392 11.9375 75.0653 11.9375H72.319V18.9921H68.5903Z" fill="#07325D"/>
</svg>
